# xmcd
#
# Track frame offsets: 
#        150
#        18432
#        34335
#        62365
#        81030
#        93047
#        110310
#        127217
#        146395
#        170295
#        196660
#
# Disc length: 3026 seconds
#
# Revision: 0
# Processed by: cddbd v1.5.2PL0 Copyright (c) Steve Scherf et al.
# Submitted via: ExactAudioCopy v0.95a5
#
DISCID=820bd00b
DTITLE=TOTH BAGI BAND - Crazy Clock
DYEAR=2002
DGENRE=Blues
TTITLE0=Your Way
TTITLE1=I Ain't Superstitous
TTITLE2=Angel Left Me Today
TTITLE3=Baby Blue
TTITLE4=Lucky Jack
TTITLE5=October
TTITLE6=Six Shooter
TTITLE7=Never Mind
TTITLE8=Losein'The Blues
TTITLE9=Crazy Clock
TTITLE10=Red House
EXTD=
EXTT0=
EXTT1=
EXTT2=
EXTT3=
EXTT4=
EXTT5=
EXTT6=
EXTT7=
EXTT8=
EXTT9=
EXTT10=
PLAYORDER=
